<svg width="132" height="30" viewBox="0 0 132 30" fill="none" xmlns="http://www.w3.org/2000/svg">
<path d="M75.5511 23.193C72.8789 23.193 70.967 21.3026 70.967 18.6192C70.967 15.9357 72.8409 14.0453 75.513 14.0453C78.1852 14.0453 80.0592 15.9771 80.0592 18.6192C80.0592 21.2613 78.1473 23.193 75.5549 23.193M75.5169 28C81.5378 28 85.9622 24.2567 85.9622 18.6192C85.9622 12.9817 81.6176 9.23831 75.5169 9.23831C69.4161 9.23831 65.0715 12.9817 65.0715 18.6192C65.0715 24.2567 69.4161 28 75.5169 28ZM51.7183 27.4099H57.4578V20.5923C57.4578 19.0965 57.5757 17.0444 58.8529 15.7064C59.5713 14.9585 60.4874 14.3647 62.0002 14.3647C62.8365 14.3647 63.9122 14.5601 64.3113 14.6391V9.6743C63.7145 9.47885 63.3153 9.39992 62.6388 9.39992C60.2479 9.39992 58.5336 10.8582 57.4578 12.9478V9.83593H51.7183V27.4175V27.4099ZM35.2937 16.2927C35.6511 14.4023 37.1676 13.1808 39.2811 13.1808C41.3945 13.1808 42.7477 14.2858 43.2266 16.2927H35.2937ZM39.1214 28C43.7474 28 46.9365 26.1884 48.2516 22.0468H42.5918C41.8354 23.2306 40.9193 23.7004 39.2051 23.7004C36.6127 23.7004 35.1797 22.0054 35.1797 19.6H48.4569V19.01C48.4569 12.8614 44.9903 9.23455 38.8896 9.23455C33.1499 9.23455 29.3603 12.9779 29.3603 18.6154C29.3603 24.2529 33.0663 27.9962 39.129 27.9962M12.0995 17.7886L15.5281 8.80234L18.8769 17.7886H12.0995ZM22.465 27.4062H28.8433L18.3447 1H12.7229L2 27.4099H8.37822L10.2902 22.4451H20.6139L22.4461 27.4099L22.465 27.4062Z" fill="#002554"/>
<path d="M104.706 19.7246H87.9629V28.0005H104.706V19.7246Z" fill="#FFB81C"/>
<path d="M130.269 27.9998L118.907 14.4397L129.87 1.58984H122.373L112.845 12.8236V1.58984H106.705V27.9998H112.845V16.4503L122.373 27.9998H130.269Z" fill="#002554"/>
</svg>
