<svg width="132" height="30" viewBox="0 0 132 30" fill="none" xmlns="http://www.w3.org/2000/svg">
<path d="M75.5511 23.0622C72.8789 23.0622 70.967 21.1718 70.967 18.4883C70.967 15.8048 72.8409 13.9144 75.513 13.9144C78.1852 13.9144 80.0592 15.8462 80.0592 18.4883C80.0592 21.1304 78.1473 23.0622 75.5549 23.0622M75.5169 27.8691C81.5378 27.8691 85.9622 24.1258 85.9622 18.4883C85.9622 12.8508 81.6176 9.10745 75.5169 9.10745C69.4161 9.10745 65.0715 12.8508 65.0715 18.4883C65.0715 24.1258 69.4161 27.8691 75.5169 27.8691ZM51.7183 27.2791H57.4578V20.4615C57.4578 18.9656 57.5757 16.9135 58.8529 15.5755C59.5713 14.8276 60.4874 14.2338 62.0002 14.2338C62.8365 14.2338 63.9122 14.4293 64.3113 14.5082V9.54345C63.7145 9.34799 63.3153 9.26906 62.6388 9.26906C60.2479 9.26906 58.5336 10.7273 57.4578 12.817V9.70507H51.7183V27.2866V27.2791ZM35.2937 16.1618C35.6511 14.2714 37.1676 13.0499 39.2811 13.0499C41.3945 13.0499 42.7477 14.1549 43.2266 16.1618H35.2937ZM39.1214 27.8691C43.7474 27.8691 46.9365 26.0576 48.2516 21.9159H42.5918C41.8354 23.0998 40.9193 23.5696 39.2051 23.5696C36.6127 23.5696 35.1797 21.8745 35.1797 19.4692H48.4569V18.8791C48.4569 12.7305 44.9903 9.10369 38.8896 9.10369C33.1499 9.10369 29.3603 12.847 29.3603 18.4845C29.3603 24.122 33.0663 27.8654 39.129 27.8654M12.0995 17.6577L15.5281 8.67148L18.8769 17.6577H12.0995ZM22.465 27.2753H28.8433L18.3447 0.869141H12.7229L2 27.2791H8.37822L10.2902 22.3143H20.6139L22.4461 27.2791L22.465 27.2753Z" fill="white" fill-opacity="0.3"/>
<path d="M104.706 19.5918H87.9629V27.8677H104.706V19.5918Z" fill="white" fill-opacity="0.3"/>
<path d="M130.269 27.8689L118.907 14.3088L129.87 1.45898H122.373L112.845 12.6927V1.45898H106.705V27.8689H112.845V16.3195L122.373 27.8689H130.269Z" fill="white" fill-opacity="0.3"/>
</svg>
